<?xml version="1.0" encoding="utf-8"?>
<!-- Generator: Adobe Illustrator 23.0.3, SVG Export Plug-In . SVG Version: 6.00 Build 0)  -->
<svg version="1.1" id="Lager_1" xmlns="http://www.w3.org/2000/svg" xmlns:xlink="http://www.w3.org/1999/xlink" x="0px" y="0px"
	 viewBox="0 0 200 200" style="enable-background:new 0 0 200 200;" xml:space="preserve">
<style type="text/css">
	.st0{fill:#845E67;}
</style>
<path class="st0" d="M170.74,154.18c-1.33,1.51-2.87,4.24-4.56,8.15c-1.69,3.84-2.63,6.96-2.81,9.36H121.9l53.52-83.62v-2.81h-65.62
	L85.91,22.3H68.95l-33.18,88.17c-0.98,0.18-2.49,0.59-4.56,1.21c-1.96,0.53-3.97,1.1-6.02,1.73v3.08h33.46v-2.4
	c-0.64-0.18-2.1-0.68-4.43-1.48c-2.31-0.89-4.5-1.46-6.55-1.73l6.55-18.07h35.19l6.3,17.8c-2.14,0.27-5.66,1.25-10.57,2.94v2.94
	h44.69v-2.67c-3.76-1.25-7.23-2.28-10.45-3.08l-6.82-18.1H150l-52.72,81.6v4.68h75.86l2.67-24.74H170.74z M56.77,85.59l15.25-42.41
	l14.86,42.41H56.77z"/>
<g>
	<path class="st0" d="M198.23,2v196h-196V2H198.23 M200.23,0h-200v200h200V0L200.23,0z"/>
</g>
</svg>
